<svg width="175" height="150" viewBox="0 0 175 150" fill="none" xmlns="http://www.w3.org/2000/svg">
<circle cx="10" cy="5" r="5" fill="#AB2F16"/>
<circle cx="30" cy="5" r="5" fill="#AB2F16"/>
<circle cx="50" cy="5" r="5" fill="#AB2F16"/>
<circle cx="70" cy="5" r="5" fill="#AB2F16"/>
<circle cx="90" cy="5" r="5" fill="#AB2F16"/>
<circle cx="110" cy="5" r="5" fill="#AB2F16"/>
<circle cx="130" cy="5" r="5" fill="#AB2F16"/>
<circle cx="150" cy="5" r="5" fill="#AB2F16"/>
<circle cx="170" cy="5" r="5" fill="#AB2F16"/>
<circle cx="10" cy="25" r="5" fill="#AB2F16"/>
<circle cx="30" cy="25" r="5" fill="#AB2F16"/>
<circle cx="50" cy="25" r="5" fill="#AB2F16"/>
<circle cx="70" cy="25" r="5" fill="#AB2F16"/>
<circle cx="90" cy="25" r="5" fill="#AB2F16"/>
<circle cx="110" cy="25" r="5" fill="#AB2F16"/>
<circle cx="130" cy="25" r="5" fill="#AB2F16"/>
<circle cx="150" cy="25" r="5" fill="#AB2F16"/>
<circle cx="170" cy="25" r="5" fill="#AB2F16"/>
<circle cx="10" cy="45" r="5" fill="#AB2F16"/>
<circle cx="30" cy="45" r="5" fill="#AB2F16"/>
<circle cx="50" cy="45" r="5" fill="#AB2F16"/>
<circle cx="70" cy="45" r="5" fill="#AB2F16"/>
<circle cx="90" cy="45" r="5" fill="#AB2F16"/>
<circle cx="110" cy="45" r="5" fill="#AB2F16"/>
<circle cx="130" cy="45" r="5" fill="#AB2F16"/>
<circle cx="150" cy="45" r="5" fill="#AB2F16"/>
<circle cx="170" cy="45" r="5" fill="#AB2F16"/>
<circle cx="10" cy="65" r="5" fill="#AB2F16"/>
<circle cx="30" cy="65" r="5" fill="#AB2F16"/>
<circle cx="50" cy="65" r="5" fill="#AB2F16"/>
<circle cx="70" cy="65" r="5" fill="#AB2F16"/>
<circle cx="90" cy="65" r="5" fill="#AB2F16"/>
<circle cx="110" cy="65" r="5" fill="#AB2F16"/>
<circle cx="130" cy="65" r="5" fill="#AB2F16"/>
<circle cx="150" cy="65" r="5" fill="#AB2F16"/>
<circle cx="170" cy="65" r="5" fill="#AB2F16"/>
<circle cx="10" cy="85" r="5" fill="#AB2F16"/>
<circle cx="30" cy="85" r="5" fill="#AB2F16"/>
<circle cx="50" cy="85" r="5" fill="#AB2F16"/>
<circle cx="70" cy="85" r="5" fill="#AB2F16"/>
<circle cx="90" cy="85" r="5" fill="#AB2F16"/>
<circle cx="110" cy="85" r="5" fill="#AB2F16"/>
<circle cx="130" cy="85" r="5" fill="#AB2F16"/>
<circle cx="150" cy="85" r="5" fill="#AB2F16"/>
<circle cx="170" cy="85" r="5" fill="#AB2F16"/>
<circle cx="10" cy="105" r="5" fill="#AB2F16"/>
<circle cx="30" cy="105" r="5" fill="#AB2F16"/>
<circle cx="50" cy="105" r="5" fill="#AB2F16"/>
<circle cx="70" cy="105" r="5" fill="#AB2F16"/>
<circle cx="90" cy="105" r="5" fill="#AB2F16"/>
<circle cx="110" cy="105" r="5" fill="#AB2F16"/>
<circle cx="130" cy="105" r="5" fill="#AB2F16"/>
<circle cx="150" cy="105" r="5" fill="#AB2F16"/>
<circle cx="170" cy="105" r="5" fill="#AB2F16"/>
<circle cx="10" cy="125" r="5" fill="#AB2F16"/>
<circle cx="30" cy="125" r="5" fill="#AB2F16"/>
<circle cx="50" cy="125" r="5" fill="#AB2F16"/>
<circle cx="70" cy="125" r="5" fill="#AB2F16"/>
<circle cx="90" cy="125" r="5" fill="#AB2F16"/>
<circle cx="110" cy="125" r="5" fill="#AB2F16"/>
<circle cx="130" cy="125" r="5" fill="#AB2F16"/>
<circle cx="150" cy="125" r="5" fill="#AB2F16"/>
<circle cx="170" cy="125" r="5" fill="#AB2F16"/>
<circle cx="10" cy="145" r="5" fill="#AB2F16"/>
<circle cx="30" cy="145" r="5" fill="#AB2F16"/>
<circle cx="50" cy="145" r="5" fill="#AB2F16"/>
<circle cx="70" cy="145" r="5" fill="#AB2F16"/>
<circle cx="90" cy="145" r="5" fill="#AB2F16"/>
<circle cx="110" cy="145" r="5" fill="#AB2F16"/>
<circle cx="130" cy="145" r="5" fill="#AB2F16"/>
<circle cx="150" cy="145" r="5" fill="#AB2F16"/>
<circle cx="170" cy="145" r="5" fill="#AB2F16"/>
</svg>
