<svg width="29" height="16" viewBox="0 0 29 16" fill="none" xmlns="http://www.w3.org/2000/svg">
<path d="M8.00385 8.16844C7.97555 8.21712 7.93398 8.25812 7.88327 8.28739C7.83256 8.31666 7.77445 8.33317 7.71471 8.3353C7.51302 8.33812 7.18465 8.10153 7.12774 8.06001C7.07083 8.0185 6.57674 7.53987 6.19778 7.39497C5.99373 7.31447 5.7725 7.27808 5.55092 7.28856C5.32935 7.29903 5.11331 7.35611 4.91921 7.45543C4.91921 7.45543 4.0357 7.86513 3.51349 9.3119C2.99128 10.7587 2.9832 11.9306 3.54553 12.3534C4.10786 12.7762 4.76657 12.4495 5.20701 12.2792C5.64746 12.1089 6.38684 11.7006 6.63563 11.6785C6.88441 11.6563 7.0449 11.7155 6.95659 12.1162C6.72373 12.8627 6.42577 13.5906 6.06566 14.2927C5.67945 14.5605 5.24556 14.7639 4.78357 14.8936C4.12748 15.0703 3.43378 15.0911 2.76668 14.9541C2.02642 14.7704 1.36337 14.3845 0.864271 13.8469C0.246122 13.2312 -0.123245 11.9672 0.0376704 10.4689C0.198585 8.97052 1.15318 7.30126 2.24492 6.28495C3.33666 5.26865 4.31631 4.92746 5.27874 4.89038C5.83606 4.89236 6.38549 5.01222 6.88494 5.24078C7.38439 5.46934 7.82059 5.80053 8.16016 6.20898C8.19029 6.25159 8.21242 6.2986 8.22559 6.34803C8.22559 6.34803 8.29275 7.82423 8.00385 8.16844Z" fill="white"/>
<path d="M12.9099 5.16748L10.2062 15.0365H8.52724C8.52724 15.0365 7.75081 15.0643 7.53974 14.8084C7.32868 14.5524 7.3712 14.3183 7.49766 13.7624C7.62413 13.2066 9.40596 6.65315 9.40596 6.65315C9.40596 6.65315 9.65278 5.74043 9.88761 5.50706C10.1224 5.27369 10.4179 5.16768 10.953 5.16768L12.9099 5.16748Z" fill="white"/>
<path d="M12.4221 0.770323C12.4221 0.770323 13.2829 0.737063 13.7284 1.1765C13.892 1.33425 13.992 1.5391 14.0119 1.75684C14.0317 1.97459 13.9701 2.19203 13.8374 2.37285C13.663 2.61777 13.1994 3.29667 11.766 3.29667C10.3326 3.29667 10.3154 2.43978 10.3154 2.29504C10.332 1.97828 10.4759 1.67864 10.7188 1.45467C10.9311 1.23218 11.1937 1.05555 11.4881 0.937285C11.7824 0.819025 12.1013 0.762026 12.4221 0.770323Z" fill="white"/>
<path d="M14.9555 5.16766H13.5891L13.0113 7.32079H14.3777L12.2409 15.0379H14.408C14.408 15.0379 15.3349 15.0703 15.66 13.9355C15.9851 12.8007 17.4659 7.32683 17.4659 7.32683H18.6939C18.8614 7.33039 19.0278 7.30005 19.1814 7.23796C19.2814 7.18904 19.367 7.11843 19.431 7.03219C19.4949 6.94594 19.5353 6.84664 19.5486 6.7428C19.6509 6.36998 19.8552 5.64065 19.8552 5.64065C19.8734 5.58468 19.8764 5.52539 19.8638 5.4681C19.8512 5.41081 19.8235 5.3573 19.783 5.31236C19.6552 5.21314 19.4919 5.16155 19.3251 5.16766H18.1171L19.1047 1.66813C19.1647 1.48785 19.1497 1.29331 19.0623 1.12279C18.9119 0.894663 18.6404 0.789062 18.1771 0.789062C17.7138 0.818228 17.2596 0.921819 16.8348 1.09518C16.5006 1.21435 16.203 1.40724 15.9679 1.65704L14.9555 5.16766Z" fill="white"/>
<path d="M17.1416 12.1742V13.8683C17.2848 13.8611 17.4226 13.816 17.5389 13.7385C17.8114 13.5938 19.3007 12.4822 19.5133 12.3895C19.7258 12.2968 20.2513 12.0267 20.7011 12.4636C21.151 12.9005 21.608 13.5345 21.8568 13.7905C22.1056 14.0464 22.1418 14.065 22.2902 14.2207C22.5907 14.5303 22.9806 14.754 23.414 14.8656C24.4461 15.1122 25.5333 15.0772 26.5442 14.7649C27.9489 14.3531 28.342 14.1641 28.7354 13.6744C29.1287 13.1847 28.9883 12.3101 28.9122 12.1918C28.8674 12.1235 28.8362 12.0485 28.82 11.9701C28.6703 11.9805 28.5243 12.0183 28.3906 12.0813C28.1739 12.1851 27.873 12.3113 27.612 12.4338C27.1892 12.5846 26.7562 12.7097 26.3157 12.8084C26.0725 12.8396 25.8252 12.8308 25.5853 12.7824C25.4095 12.7065 25.2575 12.5904 25.1438 12.4451C24.9663 12.1954 24.8068 11.9352 24.6662 11.6662C24.5094 11.3749 24.3908 11.0673 24.3128 10.75C24.2686 10.4454 24.137 10.1573 23.9317 9.9155C23.5688 9.70493 23.1757 9.54265 22.7638 9.43345C22.436 9.32264 22.0763 9.32264 21.7484 9.43345C21.6278 9.48907 21.287 9.61482 21.0943 9.71901C20.9015 9.8232 19.7178 10.4979 19.0316 10.9171C18.3454 11.3363 17.7072 11.7331 17.5066 11.878C17.3696 11.9593 17.2466 12.0591 17.1416 12.1742Z" fill="white"/>
<path d="M24.022 4.48901C24.022 4.48901 22.8664 4.85628 22.2582 5.29028C21.6501 5.72427 21.608 5.75209 21.5479 6.17519C21.4877 6.5983 21.644 7.09902 22.2101 7.24355C22.753 7.35184 23.3141 7.35753 23.8595 7.26028C24.4333 7.14315 24.9784 6.92801 25.4667 6.62592C25.7164 6.41254 25.9206 6.1577 26.0685 5.87465C26.1226 5.80228 26.1858 5.57974 26.3084 5.34873C26.457 5.13713 26.5488 4.89582 26.5763 4.64483C26.5733 4.38883 26.5162 4.09392 25.833 4.09695C25.2094 4.12982 24.5966 4.26247 24.022 4.48901Z" fill="white"/>
</svg>
