<svg width="17" height="13" viewBox="0 0 17 13" fill="none" xmlns="http://www.w3.org/2000/svg">
<path d="M12.7098 0.646484C11.244 0.646484 9.94922 1.28478 9.17546 2.25739C9.17546 2.25739 8.9142 2.59652 8.49981 2.59652C8.08581 2.59652 7.82454 2.25739 7.82454 2.25739C7.05041 1.28478 5.75636 0.646484 4.29023 0.646484C1.92064 0.646484 0 2.31251 0 4.36862C0 4.85411 0.110006 5.31607 0.304746 5.74128C1.50663 8.97856 6.88206 12.7845 8.49981 12.9235C10.1179 12.7845 15.4926 8.97856 16.6953 5.74128C16.89 5.3164 17 4.85411 17 4.36862C17 2.31251 15.0794 0.646484 12.7098 0.646484Z" fill="white"/>
</svg>
