<svg width="36" height="28" viewBox="0 0 36 28" fill="none" xmlns="http://www.w3.org/2000/svg">
<path d="M13.2451 3.63915C10.2844 0.742349 5.53595 0.794166 2.63915 3.75488C-0.257651 6.7156 -0.205834 11.4641 2.75488 14.3609L13.2451 3.63915ZM19.2427 20L13.9976 25.3609C15.5471 26.8769 17.6768 27.6484 19.8378 27.4764C21.9988 27.3043 23.9797 26.2057 25.2699 24.4636L19.2427 20ZM34.5271 11.9636C36.9923 8.6349 36.2923 3.93804 32.9636 1.47286C29.6349 -0.992309 24.938 -0.292285 22.4729 3.03641L34.5271 11.9636ZM2.75488 14.3609L13.9976 25.3609L24.4878 14.6391L13.2451 3.63915L2.75488 14.3609ZM25.2699 24.4636L34.5271 11.9636L22.4729 3.03641L13.2156 15.5364L25.2699 24.4636Z" fill="#AE432D"/>
</svg>
